<?xml version="1.0" standalone="no"?><!DOCTYPE svg PUBLIC "-//W3C//DTD SVG 1.1//EN" "http://www.w3.org/Graphics/SVG/1.1/DTD/svg11.dtd"><svg t="1758036172301" class="icon" viewBox="0 0 1024 1024" version="1.1" xmlns="http://www.w3.org/2000/svg" p-id="19171" xmlns:xlink="http://www.w3.org/1999/xlink" width="32" height="32"><path d="M558.183 691.241c-44.952 0-88.578-8.813-129.667-26.191-39.67-16.779-75.291-40.793-105.872-71.373-30.582-30.581-54.596-66.202-71.376-105.874-17.38-41.092-26.193-84.722-26.193-129.678 0-44.951 8.813-88.578 26.194-129.667 16.78-39.668 40.794-75.288 71.376-105.867s66.202-54.592 105.872-71.371c41.089-17.379 84.716-26.191 129.667-26.191 44.956 0 88.585 8.812 129.675 26.191 39.669 16.778 75.288 40.792 105.867 71.372 30.577 30.579 54.589 66.198 71.366 105.868 17.377 41.087 26.188 84.713 26.188 129.664 0 44.956-8.811 88.585-26.188 129.675-16.776 39.672-40.787 75.294-71.365 105.875-30.578 30.582-66.197 54.596-105.867 71.375-41.091 17.38-84.72 26.192-129.677 26.192z m0-595.446c-144.657 0-262.344 117.681-262.344 262.33 0 144.661 117.687 262.351 262.344 262.351 144.649 0 262.33-117.69 262.33-262.351 0-144.649-117.681-262.33-262.33-262.33z" fill="#ffffff" p-id="19172"></path><path d="M157.45 1000.768a35.217 35.217 0 0 1-20.825-6.801c-15.787-11.517-19.248-33.651-7.73-49.438L382.09 597.474c11.518-15.788 33.652-19.248 49.438-7.73 15.787 11.517 19.248 33.651 7.73 49.438L186.063 986.236c-6.927 9.495-17.696 14.532-28.613 14.532z" fill="#ffffff" p-id="19173"></path><path d="M403.816 626.01c-9.68 0-19.321-3.948-26.308-11.709-48.868-54.281-73.675-124.344-69.851-197.282 3.825-72.94 35.826-140.026 90.109-188.9 44.846-40.355 102.729-60.833 162.942-57.673 60.232 3.162 115.637 29.586 156.008 74.408 69.238 76.936 62.991 195.876-13.917 265.149-30.003 27.002-67.643 40.301-105.147 40.305-43.062 0.004-85.948-17.521-116.963-51.955-23.753-26.372-35.807-60.426-33.939-95.888 1.866-35.447 17.418-68.047 43.79-91.794 22.505-20.267 51.552-30.553 81.802-28.97 30.24 1.586 58.05 14.852 78.307 37.353 17.485 19.411 26.367 44.474 25.001 70.562-1.366 26.076-12.804 50.06-32.207 67.535-15.91 14.325-35.779 21.546-55.674 21.869 23.771 2.706 48.545-4.384 67.681-21.607 47.917-43.16 51.814-117.277 8.677-165.21-57.211-63.517-155.466-68.675-219.017-11.486-83.047 74.771-89.783 203.18-15.008 286.237 13.075 14.523 11.9 36.896-2.623 49.97a35.251 35.251 0 0 1-23.663 9.086z m162.538-273.701c-10.539 0-20.568 3.841-28.459 10.948-12.332 11.104-19.604 26.35-20.477 42.929a63.417 63.417 0 0 0-0.049 5.598 35.316 35.316 0 0 1 8.17-10.873c14.516-13.084 36.887-11.927 49.973 2.586 5.377 5.963 14.607 6.441 20.577 1.066 5.355-4.823 8.515-11.448 8.892-18.649 0.378-7.207-2.079-14.134-6.918-19.505-7.616-8.461-18.064-13.444-29.427-14.04-0.762-0.04-1.524-0.06-2.282-0.06z" fill="#ffffff" p-id="19174"></path></svg>