<?xml version="1.0" standalone="no"?><!DOCTYPE svg PUBLIC "-//W3C//DTD SVG 1.1//EN" "http://www.w3.org/Graphics/SVG/1.1/DTD/svg11.dtd"><svg t="1758036462287" class="icon" viewBox="0 0 1024 1024" version="1.1" xmlns="http://www.w3.org/2000/svg" p-id="20394" xmlns:xlink="http://www.w3.org/1999/xlink" width="32" height="32"><path d="M938.666667 725.333333h-42.666667c0-211.738667-172.261333-384-384-384s-384 172.261333-384 384h-42.666667c0-235.264 191.402667-426.666667 426.666667-426.666666s426.666667 191.402667 426.666667 426.666666zM512 384c-188.213333 0-341.333333 153.12-341.333333 341.333333h42.666666c0-164.682667 133.984-298.666667 298.666667-298.666666s298.666667 133.984 298.666667 298.666666h42.666666c0-188.213333-153.12-341.333333-341.333333-341.333333z m0 85.333333c-141.157333 0-256 114.842667-256 256h42.666667c0-117.632 95.701333-213.333333 213.333333-213.333333s213.333333 95.701333 213.333333 213.333333h42.666667c0-141.157333-114.842667-256-256-256z m0 85.333334c-94.106667 0-170.666667 76.56-170.666667 170.666666h42.666667c0-70.581333 57.418667-128 128-128s128 57.418667 128 128h42.666667c0-94.106667-76.56-170.666667-170.666667-170.666666z" p-id="20395" fill="#000000"></path></svg>