<?xml version="1.0" standalone="no"?><!DOCTYPE svg PUBLIC "-//W3C//DTD SVG 1.1//EN" "http://www.w3.org/Graphics/SVG/1.1/DTD/svg11.dtd"><svg t="1758036016489" class="icon" viewBox="0 0 1024 1024" version="1.1" xmlns="http://www.w3.org/2000/svg" p-id="8921" xmlns:xlink="http://www.w3.org/1999/xlink" width="32" height="32"><path d="M498.6 884.9c-37.6 0-74.6-3.5-110.9-10.6-82.7-16.1-162.1-50.8-236.2-103.1-19.6-13.9-25.3-40-13.3-60.9L472.1 131.9c8.4-14.5 23.3-23.1 40.1-23.1 16.7 0 31.7 8.6 40.1 23.1l333.5 577.7c12.3 21.4 5.8 48.6-15 62-21.4 13.8-56.5 34.4-102.2 54.3-55.1 24-111.6 41-167.8 50.3-34.2 5.8-68.4 8.7-102.2 8.7z m13.7-736.1c-1.3 0-3.8 0.4-5.4 3.1l-334 578.4c-1.6 2.8-0.8 6.4 1.7 8.2 69.4 49 143.7 81.5 220.8 96.5 64.2 12.5 131.2 13.1 199 1.8 123.6-20.6 219.4-76 254.9-98.8 2.8-1.8 3.7-5.5 2-8.4L517.7 151.9c-1.6-2.7-4.1-3.1-5.4-3.1z" p-id="8922" fill="#ffffff"></path><path d="M691.9 640.3m-27 0a27 27 0 1 0 54 0 27 27 0 1 0-54 0Z" p-id="8923" fill="#ffffff"></path><path d="M343.3 613.3m-27 0a27 27 0 1 0 54 0 27 27 0 1 0-54 0Z" p-id="8924" fill="#ffffff"></path><path d="M580.1 567.7m-27 0a27 27 0 1 0 54 0 27 27 0 1 0-54 0Z" p-id="8925" fill="#ffffff"></path><path d="M425.2 489.9m-27 0a27 27 0 1 0 54 0 27 27 0 1 0-54 0Z" p-id="8926" fill="#ffffff"></path><path d="M485.1 677.9m-27 0a27 27 0 1 0 54 0 27 27 0 1 0-54 0Z" p-id="8927" fill="#ffffff"></path><path d="M580.1 442.3m-27 0a27 27 0 1 0 54 0 27 27 0 1 0-54 0Z" p-id="8928" fill="#ffffff"></path><path d="M512.1 329.8m-27 0a27 27 0 1 0 54 0 27 27 0 1 0-54 0Z" p-id="8929" fill="#ffffff"></path><path d="M498.6 884.9c-37.6 0-74.6-3.5-110.9-10.6-82.7-16.1-162.1-50.8-236.2-103.1-19.6-13.9-25.3-40-13.3-60.9l0.4-0.6 58.4-86.3 17.1 16.7c79.4 77.6 184.2 120.4 295.3 120.4 57 0 112.4-11.2 164.4-33.2 50.3-21.3 95.5-51.8 134.3-90.6l17.2-17.2 60.2 89.5 0.3 0.6c12.3 21.4 5.8 48.6-15 62-21.4 13.8-56.5 34.4-102.2 54.3-55.1 24-111.6 41-167.8 50.3-34.2 5.8-68.4 8.7-102.2 8.7zM172.7 730.7c-1.3 2.7-0.5 6 2 7.8 69.4 49 143.7 81.5 220.8 96.5 64.2 12.5 131.2 13.1 199 1.8 123.6-20.6 219.4-76 254.9-98.8 2.7-1.7 3.6-5.1 2.2-8l-32.5-48.3c-38.3 34.6-81.8 62.3-129.4 82.5-57 24.1-117.6 36.4-180 36.4-113.6 0-221.3-40.9-305.8-115.6l-31.2 45.7z" p-id="8930" fill="#ffffff"></path></svg>